<svg xmlns="http://www.w3.org/2000/svg" viewBox="0 0 280.49 99.86"><title>logo_salokafest_black</title><g id="Layer_2" data-name="Layer 2"><g id="Layer_1-2" data-name="Layer 1"><path d="M124.29,30a31.1,31.1,0,0,1,2.65-12c4.16-9,11-14.69,20.69-16.49a28.45,28.45,0,0,1,33,22.18c2.34,11-.5,20.44-8.58,28.16A26,26,0,0,1,156,59.12c-9.25.76-17.38-1.9-24-8.65a26.08,26.08,0,0,1-7.48-16.42c-.11-1.35-.14-2.72-.2-4.08m47.1.2a18,18,0,0,0-.84-5.53,18.7,18.7,0,0,0-16.09-13.38c-7.1-.61-12.81,2.19-17,8a17.65,17.65,0,0,0-3,14.67,20.11,20.11,0,0,0,8.33,12.2A16.58,16.58,0,0,0,156,49.07a19,19,0,0,0,15.36-18.9" fill="#1a1a1a"/><path d="M61.19,23,54.58,38.91h9.83c.42,3.06,0,6,.09,9.11-2.33.18-4.58-.14-6.84-.1s-4.47,0-6.82,0c-.12.25-.27.57-.4.9-1.19,2.92-2.36,5.84-3.55,8.76-.36.89-.37.9-1.27.89l-8.69-.15c-.28,0-.57-.06-1-.11C44.34,38.78,52.58,19.39,61.07,0c.71.82,25.27,57,25.51,58.24a5.06,5.06,0,0,1-1,.21c-3.1,0-6.19-.1-9.29-.15l-.45-.07c-2.36-5.82-4.74-11.72-7.16-17.61s-4.85-11.7-7.28-17.56l-.23,0" fill="#1a1a1a"/><path d="M229.73,58.37C238.15,38.85,246.38,19.48,254.82.2h.29c.18.37.38.73.55,1.11q3.89,8.88,7.78,17.78Q271.68,38,279.9,56.87c.2.44.36.9.59,1.5a7.52,7.52,0,0,1-1.05.16c-2.86,0-5.72-.1-8.59-.07a1.5,1.5,0,0,1-1.65-1.15c-.82-2.14-1.71-4.25-2.58-6.37Q261,37.32,255.44,23.69c-.07-.17-.17-.34-.26-.53-.52.62-6.23,14.1-6.69,15.83l9.61.09a42,42,0,0,1,.1,9c-4.48.08-9-.15-13.53-.21-.15.35-.3.67-.43,1-1.19,2.92-2.36,5.84-3.55,8.77-.37.9-.37.9-1.37.89l-8.1-.09c-.45,0-.89-.07-1.49-.11" fill="#1a1a1a"/><path d="M8.4,42.24c.11.24.25.53.37.83a10.22,10.22,0,0,0,8,6.38,5.76,5.76,0,0,0,2.33-.14,16.18,16.18,0,0,0,2.67-1,6.6,6.6,0,0,0,3.56-8.4,9.4,9.4,0,0,0-4.9-5.72c-1.51-.73-3.06-1.37-4.59-2.05a31.2,31.2,0,0,1-8-4.91A14.12,14.12,0,0,1,3,16.7,15.29,15.29,0,0,1,5.69,7.18a13.35,13.35,0,0,1,10.71-6A17.39,17.39,0,0,1,29.16,5.49a11.39,11.39,0,0,1,3.94,6.44c-2.74,1.39-5.51,2.72-8.35,4.09-.13-.34-.24-.6-.34-.86-1.24-3.47-3.35-4.77-6.76-4.73a5.43,5.43,0,0,0-4.6,8A6.92,6.92,0,0,0,15.25,21a18.27,18.27,0,0,0,2.25,1.44c2.16,1.12,4.31,2.28,6.54,3.26a21.19,21.19,0,0,1,8.59,7.11A13.45,13.45,0,0,1,35.44,40a18.11,18.11,0,0,1-1.18,7.91,18.67,18.67,0,0,1-6.16,8.38,15.52,15.52,0,0,1-8.53,3,20.58,20.58,0,0,1-18.39-10A14.47,14.47,0,0,1,.1,46.86c-.22-.63-.09-.85.48-1.12,2.5-1.18,5-2.34,7.52-3.5.05,0,.13,0,.3,0" fill="#1a1a1a"/><path d="M189.52,2.28h9.69c0,.4.13.81.13,1.22q0,11,0,22v1.3c.38-.47.61-.74.82-1,5.36-7.2,10.7-14.43,16.09-21.6,1.75-2.34,1-1.88,3.79-1.92,2.63,0,5.27,0,7.9,0,.25,0,.51,0,1,0-.29.42-.49.74-.72,1q-6.28,8.28-12.57,16.54Q203.33,36,191,52.14c-.23.3-.39.81-.87.67s-.35-.72-.35-1.11q-.17-24.09-.3-48.2c0-.38,0-.77.05-1.22" fill="#1a1a1a"/><path d="M101.6,48.73h7.07l7,0c2.32,0,4.65-.14,6.93,0a61.22,61.22,0,0,1-.08,9.53c-10.13.12-20.28.31-30.57,0,0-18.72.25-37.33.14-56a3.85,3.85,0,0,1,.8-.14q4.05,0,8.1.06c.63,0,.74.13.79.76,0,.29,0,.6,0,.9q-.1,21.86-.2,43.71c0,.35,0,.71,0,1.14" fill="#1a1a1a"/><path d="M111,68.4h19v5.23c-4.58.08-9.17,0-13.8.06v7.53h12.24c.05,1.81,0,3.51,0,5.34H116.26v7.58c1.13.07,2.27,0,3.4,0h10.26a21.23,21.23,0,0,1,.06,5.2H111Z" fill="#1a1a1a"/><path d="M164.07,73.77l-4.7,2.2c-.16-.35-.3-.64-.42-.94a3.51,3.51,0,0,0-5-1.64,3,3,0,0,0-1,4.31,5.73,5.73,0,0,0,1.64,1.54c1.09.68,2.27,1.2,3.4,1.82a36,36,0,0,1,3.41,2c3.32,2.31,4.32,5.61,3.53,9.45a8.52,8.52,0,0,1-7.11,7.12,10.29,10.29,0,0,1-10.4-3.51,8.38,8.38,0,0,1-1.79-3.41l4.68-2.13c.15.36.26.64.38.91a5.11,5.11,0,0,0,6.2,2.94,4,4,0,0,0,2.9-3.1,3.75,3.75,0,0,0-1.15-3.9,12.69,12.69,0,0,0-2.27-1.56c-1.06-.59-2.2-1-3.27-1.64a22.51,22.51,0,0,1-2.85-1.76c-2.61-2-3.39-4.72-2.85-7.88A7.42,7.42,0,0,1,153,68.34a8.9,8.9,0,0,1,10,3.34,23.46,23.46,0,0,1,1.13,2.09" fill="#1a1a1a"/><path d="M92.64,81.23v5.35c-4.1,0-8.16,0-12.33,0V99.37H75.15v-31H94.22v5.21H80.37v7.61Z" fill="#1a1a1a"/><path d="M205.83,39.4l6-8.07c.39.48.74.81,1,1.21,2,3.11,4,6.23,6,9.34l10,15.33c.19.29.37.59.62,1-.37,0-.58.12-.79.12l-9.08.11c-.33,0-.65,0-1,0a1.22,1.22,0,0,1-1.1-.67q-5.29-8.3-10.62-16.56c-.35-.56-.69-1.12-1.09-1.78" fill="#1a1a1a"/><path d="M179.13,73.7V68.5c.76-.2,19.82-.24,20.89,0v5.16H192.3V99.29a10,10,0,0,1-2.6.13c-.86,0-1.71,0-2.69,0-.06-1.26,0-2.48,0-3.69s0-2.4,0-3.59V73.7Z" fill="#1a1a1a"/></g></g></svg>