<svg xmlns="http://www.w3.org/2000/svg" xmlns:xlink="http://www.w3.org/1999/xlink" viewBox="0 0 59.86 74.52"><defs><linearGradient id="linear-gradient" x1="12.79" y1="-5.17" x2="47.07" y2="79.69" gradientUnits="userSpaceOnUse"><stop offset="0.51" stop-color="#fff"/><stop offset="1" stop-color="#f2f2f2"/></linearGradient></defs><title>receipt-paper</title><g id="Layer_2" data-name="Layer 2"><g id="Layer_1-2" data-name="Layer 1"><path d="M58.17,1a1,1,0,0,1-1-1h-.71a1,1,0,0,1-2,0h-.71a1,1,0,0,1-2,0h-.71a1,1,0,0,1-2,0H48.4a1,1,0,0,1-1,1,1,1,0,0,1-1-1h-.71a1,1,0,0,1-1,1,1,1,0,0,1-1-1H43a1,1,0,0,1-1,1,1,1,0,0,1-1-1h-.71a1,1,0,0,1-1,1,1,1,0,0,1-1-1h-.71a1,1,0,0,1-1,1,1,1,0,0,1-1-1H35a1,1,0,0,1-1,1,1,1,0,0,1-1-1h-.71a1,1,0,0,1-1,1,1,1,0,0,1-1-1h-.72a1,1,0,0,1-1,1,1,1,0,0,1-1-1h-.72a1,1,0,0,1-1,1,1,1,0,0,1-1-1h-.72a1,1,0,0,1-1,1,1,1,0,0,1-1-1H21.5a1,1,0,0,1-1,1,1,1,0,0,1-1-1h-.72a1,1,0,0,1-1,1,1,1,0,0,1-1-1h-.72a1,1,0,0,1-1,1,1,1,0,0,1-1-1h-.72a1,1,0,0,1-1,1,1,1,0,0,1-1-1h-.72a1,1,0,0,1-1,1,1,1,0,0,1-1-1H8.05a1,1,0,0,1-1,1,1,1,0,0,1-1-1H5.37a1,1,0,0,1-1,1,1,1,0,0,1-1-1H2.68a1,1,0,0,1-1,1,1,1,0,0,1-1-1H0V74.52H.7a1,1,0,0,1,2,0h.71a1,1,0,0,1,2,0h.71a1,1,0,1,1,2,0h.72a1,1,0,1,1,2,0h.72a1,1,0,1,1,2,0h.72a1,1,0,1,1,2,0h.72a1,1,0,1,1,2,0h.72a1,1,0,1,1,2,0h.72a1,1,0,1,1,2,0h.72a1,1,0,1,1,2,0h.72a1,1,0,1,1,2,0h.72a1,1,0,1,1,2,0H33a1,1,0,0,1,2,0h.71a1,1,0,0,1,2,0h.71a1,1,0,0,1,2,0H41a1,1,0,0,1,2,0h.71a1,1,0,0,1,2,0h.71a1,1,0,0,1,2,0h.71a1,1,0,0,1,2,0h.71a1,1,0,0,1,2,0h.71a1,1,0,0,1,2,0h.71a1,1,0,0,1,2,0h.7V0h-.7A1,1,0,0,1,58.17,1Z" fill="url(#linear-gradient)"/></g></g></svg>