<svg width="1440" height="139" viewBox="0 0 1440 139" fill="none" xmlns="http://www.w3.org/2000/svg">
<path d="M289.003 35.8982C166.473 46.2037 -7.62427 149.356 -7.62427 149.356L1449.61 151C1449.61 151 1325.35 11.3934 1223.07 9.04113C1156.46 7.50905 1126.32 56.0831 1060.03 63.3034C960.985 74.0906 909.662 7.10683 810.131 9.04113C706.955 11.0463 656.694 71.9804 553.63 77.5541C449.324 83.195 393.124 27.141 289.003 35.8982Z" fill="#169870"/>
<path d="M419.397 26.8982C296.867 37.2037 122.77 140.356 122.77 140.356L1580 142C1580 142 1455.75 2.39339 1353.47 0.0411317C1286.85 -1.49095 1256.72 47.0831 1190.42 54.3034C1091.38 65.0906 1040.06 -1.89317 940.526 0.0411317C837.349 2.04627 787.088 62.9804 684.025 68.5541C579.718 74.195 523.518 18.141 419.397 26.8982Z" fill="#107254"/>
<path d="M154.627 35.8982C32.0968 46.2037 -142 149.356 -142 149.356L1448.11 141C1448.11 141 1190.98 11.3934 1088.7 9.04113C1022.08 7.50905 991.948 56.0831 925.653 63.3034C826.609 74.0906 775.287 7.10683 675.755 9.04113C572.579 11.0463 522.318 71.9804 419.255 77.5541C314.948 83.195 258.748 27.141 154.627 35.8982Z" fill="#0B4C38"/>
</svg>
