<svg xmlns="http://www.w3.org/2000/svg" viewBox="0 0 416.1 480.02"><title>Asset 1</title><g id="Layer_2" data-name="Layer 2"><g id="icons"><path d="M364.2,102.7c-3.2-1.7-6.4-3.5-9.5-5.5a136.65,136.65,0,0,1-24.3-20.6C312.3,55.9,305.5,34.9,303,20.2h.1C301.1,7.9,302,0,302.1,0H219.7V318.8c0,4.3,0,8.5-.2,12.7a9.15,9.15,0,0,1-.1,1.6v.9a70.29,70.29,0,0,1-35.2,55.6,69.25,69.25,0,0,1-34.1,9c-38.4,0-69.5-31.3-69.5-70s31.1-70,69.5-70a67.48,67.48,0,0,1,21.4,3.4l.1-83.9a153,153,0,0,0-118,34.5,161.09,161.09,0,0,0-35.3,43.5c-3.5,6-16.6,30.1-18.2,69.2C-.9,347.5,5.8,370.5,9,380v.2c2,5.6,9.8,24.7,22.4,40.8a167.91,167.91,0,0,0,35.7,33.7v-.2l.2.2c39.9,27.1,84.2,25.3,84.2,25.3,7.7-.3,33.3,0,62.5-13.8,32.3-15.3,50.7-38.1,50.7-38.1a156.89,156.89,0,0,0,27.6-45.9c7.5-19.6,10-43.1,10-52.5V160.5c1,.6,14.3,9.4,14.3,9.4s19.2,12.3,49.1,20.3c21.5,5.7,50.4,6.9,50.4,6.9V115.3C405.9,116.4,385.3,113.2,364.2,102.7Z" fill="#333"/></g></g></svg>