<svg xmlns="http://www.w3.org/2000/svg" viewBox="0 0 576.49 226.72"><defs><style>.cls-1{fill:#63c75e;}.cls-2{fill:#f57130;}</style></defs><title>Asset 1</title><g id="Layer_2" data-name="Layer 2"><g id="Layer_1-2" data-name="Layer 1"><path class="cls-1" d="M105.37,67.15c2.46.72,4.53,2.45,7.29,2.77a31,31,0,0,0,6.57.32,70,70,0,0,0,33.18-11.78c2.75-1.87,5.33-4,6-7.62-.49-3.24-2.82-5.09-5.53-6.43a56.61,56.61,0,0,0-21.42-6c-2.31-.15-4.61-.53-6.91-.51A146.06,146.06,0,0,0,77.4,46.08c-11.8,4.13-23,9.41-33,17-2.81,2.12-5.68,4.19-7.74,7.16A4.24,4.24,0,0,0,35.75,74a6.54,6.54,0,0,0,3.71,2.42c5.3,1.86,10.81,2.81,16.29,3.92,13,2.63,26,5.31,39,7.83C106,90.33,117.05,93,128,96.23a108.2,108.2,0,0,1,21.33,8.67,35.75,35.75,0,0,1,9.47,7.15,24.15,24.15,0,0,1,6.39,15.2c.34,5.57-.21,11-2.91,16a16.38,16.38,0,0,1-6.82,7,123.82,123.82,0,0,1-22.6,9,224.49,224.49,0,0,1-24,5.76c-6.36,1.2-12.77,2.13-19.2,3-7.74,1.06-15.53,1.47-23.28,2.43a16.4,16.4,0,0,1-2,.07c-9.07.19-18.14.26-27.21.06a68.19,68.19,0,0,1-12.1-1.49,17.24,17.24,0,0,1-9.65-6c-4.7-5.52-6.76-12.24-8.25-19.16a17,17,0,0,1,0-3.43c2.46-3.31,6.32-4.09,10-5a96.78,96.78,0,0,1,9.69-1.85c3.79-.54,7.47-.22,10.66,2.17.11,2.4-.08,2.74-2,2.92-2.85.28-5.7.48-8.56.69A19.6,19.6,0,0,0,17.9,142c-1.33.82-1.34.8-2.19,2.8,2.39,2,5.43,2.3,8.28,2.46,4.73.27,9.46,1.13,14.21.69,7.89-.72,15.81-.78,23.71-1.66,9.07-1,18.06-2.54,27.1-3.68,7.42-.94,14.84-1.73,22.26-2.61,10-1.19,20.1-2.13,30.05-3.92,3-.55,6-1.22,9-2.05,1.88-.52,3.79-1.21,5-2.92.28-2.27-1-3.65-2.49-4.84a46.87,46.87,0,0,0-12.45-6.72c-11.86-4.67-24.18-7.8-36.55-10.79-11.94-2.88-24-5.26-36-7.63a68.55,68.55,0,0,1-18.67-6.19A43.15,43.15,0,0,1,30.5,76.63c-4.41-8.24-3.42-14.64,3-21.71S47.93,42.31,56.45,37.75c13.27-7.09,27.43-11.63,42.14-14.63,7.55-1.53,15.16-2.44,22.79-3.4,12.5-1.59,22.69,2.9,31.52,11.09A33,33,0,0,1,161.68,45a41.75,41.75,0,0,1,2.24,15.59,23.33,23.33,0,0,1-8.39,16.59c-7,6.2-15.6,8.73-24.54,10.49-2.82.55-5.68.69-8.5,1-5.48.65-10.76-.16-15.25-3.85-4.13-3.38-5.61-7.77-5.07-12.93C102.41,69.64,103.06,68.85,105.37,67.15Z"/><path class="cls-1" d="M501.45,136.17c-1.07,6.23-2.14,12.38-3.66,18.43a35.49,35.49,0,0,1-1.32,4.41c-.89,2.27-2.47,2.85-4.78,1.91a9.43,9.43,0,0,1-4-2.91,25.87,25.87,0,0,1-4.12-7.83c-.9-2.74.24-5.24.38-7.83a60.72,60.72,0,0,1,1.1-6.71c-5.39-1.32-10.9-.65-16.34-1s-11-.79-16.88-.61c-3.35,4.21-6.89,8.55-10.32,13-3,3.92-6,7.93-9,11.88a6.68,6.68,0,0,1-3.85,2.9c-1.58-.59-1.63-2.12-1.86-3.31-.77-4-1.51-8-1.9-12a15,15,0,0,1,2.44-9.42c.9-1.47,1.88-2.89,3.08-4.7-14.78-1-29-2.79-43.11-5.13-1.12,3.47-2,6.62-3.14,9.7a23.56,23.56,0,0,1-5.67,9.21l-.72.68c-1.74,1.59-3.72,2.5-6,1.54-1.74-.73-3-3.68-2.7-6,1-7.5,2.28-15,3.05-22.51.64-6.24,1.9-12.39,2.27-18.66.25-4.26,1.27-8.47,1.68-12.73a80.85,80.85,0,0,0,0-14.26c-.39-4.81-1.17-9.59-1.82-14.38-.32-2.28-.74-4.54-1.16-7.06a39.16,39.16,0,0,1,4.45-6.23A63.12,63.12,0,0,1,392,32.47c3.09-2.08,3.69-2.21,7.21-1.8,1.89,2.41,1.18,5.26.82,7.89-.89,6.52-2.06,13-3.15,19.49-1,6.06-2.25,12.09-3.09,18.17-.64,4.57-1.42,9.11-2.16,13.66-.4,2.49-.84,5-1.21,7.47a7.75,7.75,0,0,0,0,3.46c3.35-2,6.18-4.62,9.21-6.93C409.22,86.52,418.77,79,429,72.47c.93-.59,2-1,2.87-1.63,2.41-1.66,4.84-1.31,7.15.06a15.58,15.58,0,0,1,7.29,8.64q1.88,5.77-3.75,7.85a10,10,0,0,1-2.86.75c-5.78.3-10.82,2.86-15.77,5.43a144.44,144.44,0,0,0-23.64,15.71c-1.46,1.17-2.75,2.53-4.16,3.84,3.77,2.26,36.57,8.37,44.45,8.3,3.86-3.9,7.16-8.47,10.6-12.9,7.91-10.2,15.57-20.6,24.08-30.3,5-5.72,10.27-11.29,16.68-15.57a51.39,51.39,0,0,1,5.39-3.21,10.18,10.18,0,0,1,10.38.69c3.61,2.25,4,6.57,1,9.62a19.48,19.48,0,0,1-3.76,2.68c-.83.51-1.89.71-2.51,1.74,1.37,2.54,3.14,4.91,4.26,7.69a37.65,37.65,0,0,1,.93,26.72c-1.56,4.7-2.57,9.52-3.68,14.33a13.62,13.62,0,0,0-.15,2.51c.65.89,1.49.61,2.22.63,2.77.06,5.54.06,8.3.09,9.73.1,19.44.62,29.16.84A59.8,59.8,0,0,1,561.54,130a16.55,16.55,0,0,1,5.91,3.26c.63,2.2-.71,3-2.28,3.42a33.05,33.05,0,0,1-8.78,1.28,214.92,214.92,0,0,1-23.11-1.15h-.34c-10.05-.07-20.08-1-30.14-.88A11.22,11.22,0,0,0,501.45,136.17Zm-6.43-53c-11.78,13.22-23.3,26.56-34.8,40.7l26.53,1.49C489.16,111,491.39,97,495,83.14Z"/><path class="cls-1" d="M301.32,124.21c.06.88.06,1.77.17,2.65.52,4-1.4,6.53-4.81,8.16a96,96,0,0,1-15.41,5.73,110.35,110.35,0,0,1-25,4.14,122,122,0,0,1-12.83,0c-5.28-.31-7.84-3.59-9.83-7.63a11.24,11.24,0,0,1-.25-8.71c1.52-4.46,3.12-8.88,4.83-13.75L230.86,117c.32,5.18-.49,10.09-.66,15-.08,2.64-.45,5.26-.73,7.89a6.91,6.91,0,0,1-.5,1.56c-.75,2-1.66,2.37-3.54,1.57a6.7,6.7,0,0,1-2.15-1.51c-3.18-3.29-5.14-7.09-5-11.8.07-3.18,0-6.36,0-9.83-8.39,1.41-16.28,3.89-24.31,4.28-2.55-1.32-2.21-3.57-2.24-6.4-3.16,5.29-6,9.94-8.71,14.63-2.89,5-5.65,10-8.55,14.9-.92,1.57-1.63,3.42-3.57,4.07-1.22-.32-1.53-1.31-1.83-2.23-1.35-4.07-2.63-8.14-2.68-12.51A18,18,0,0,1,169.48,126c4.68-6.94,9.39-13.86,13.59-21.1q7.14-12.27,14.25-24.56A156.89,156.89,0,0,1,212.58,58a43.12,43.12,0,0,1,9.16-8.1,7.2,7.2,0,0,1,9.33.93c2.18,2.21,2.33,4.46.6,7.15-1.35,2.11-3.49,3.3-5.49,5a28.65,28.65,0,0,1,6.26,11.73,47.35,47.35,0,0,1,.71,17.71c-.28,2.39-1.14,4.71-.9,7.27,3.53,2.19,5.53,5.81,8.31,9.42,7.67-19.51,16.85-37.92,25.5-56.5a2.47,2.47,0,0,1,3.11.56A51.82,51.82,0,0,1,273.74,58a8.31,8.31,0,0,1,.76,9.32c-6.32,12.82-12.36,25.77-17.77,39-2.4,5.9-4.64,11.85-6.94,17.79a10.53,10.53,0,0,0-.38,1.49c.87,1.39,2.2,1,3.36,1.13,10.49.83,20.59-1.18,30.54-4.24,3.56-1.1,7.11-2.24,10.67-3.36,1.85-.58,3.66-.75,5.35.47C299.68,121.3,301.22,122.44,301.32,124.21ZM221,71.31l-21.09,33c6.91-2,13.5-2.44,19.56-5.13C219.55,89.78,220.22,80.57,221,71.31Z"/><path class="cls-2" d="M301.32,124.21c-.1-1.77-1.64-2.91-2-4.57-.17-2.64-1.13-5.12-1.51-7.75-1.85-12.94,1-24.88,7-36.28a87.31,87.31,0,0,1,8.65-12.88c2.48-3.18,5.38-3.94,9.07-2.32a23.17,23.17,0,0,1,3.73,2.1c1.17.8,2.22,1.79,3.47,2.82l5.55-3.45a14.44,14.44,0,0,1,5.16-2.11,11.51,11.51,0,0,1,9.32,2.29A56.38,56.38,0,0,1,362,75.49c4.58,6.77,8.5,13.92,10.5,21.91,1.29,5.11,1.21,10.23-1.33,15.12a62.14,62.14,0,0,1-13.65,17.33c-5.82,5.3-12.19,9.83-19.72,12.44-7,2.42-14,3-20.72-.92a18.69,18.69,0,0,1-3.41-2.59A71,71,0,0,1,301.32,124.21Zm23.43-48.3a21.9,21.9,0,0,0-6.73,9c-5.32,12.11-6.18,24.85-4.61,37.8.29,2.42.51,5,1.86,7.21a6,6,0,0,0,3.3-.13,74.58,74.58,0,0,0,9.73-3c9.25-3.44,17.47-8.41,23.2-16.71,4.71-6.81,7.68-14.23,7.61-22.73-.06-6.35-4.86-11.56-13.21-10.47a19.93,19.93,0,0,0-8.43,3.5c-2.19,1.44-4.24,3.1-6.45,4.74C328.26,82.57,325.85,79.93,324.75,75.91Z"/><path class="cls-2" d="M331.59,162.57c-10.9-.39-20.76-2.58-29.53-8.52a31,31,0,0,1-8.09-7.73,7.43,7.43,0,0,1-1.44-5,4.07,4.07,0,0,1,3.08-3.83c3-.49,5.86-.36,8.29,2.07a35.11,35.11,0,0,0,16.45,9.35c9.11,2.32,18,2.22,26.64-2.11a23.15,23.15,0,0,0,5.91-4.19,13.33,13.33,0,0,1,4.88-3.32c2.16-.78,4.3-1.3,6.14.6s1.38,4.09.63,6.21a18.13,18.13,0,0,1-6.46,8.23A38.53,38.53,0,0,1,337.34,162C335.26,162.16,333.22,162.86,331.59,162.57Z"/><path class="cls-2" d="M503.87,217V202.28c1.92-.76,3.72-.37,5.65-.32v23.61c-1.46,1.18-3.06.32-4.71.8l-10.36-15.25-.58.18v14.75H489c-.66-2.19-.84-19.16-.23-24h4.78c1.92,2,3.27,4.64,5,7.05S501.84,213.94,503.87,217Z"/><path class="cls-2" d="M253.07,225.52a5.76,5.76,0,0,1-.15-.94c0-7.4,0-14.79,0-22.06.65-.92,1.49-.65,2.22-.65,2.76,0,5.53-.07,8.28,0,6.5.2,13,4.77,11.42,14.29-1,5.76-4,8.54-9.73,9.61-3.3.61-6.59.27-9.89.41A2.47,2.47,0,0,1,253.07,225.52Zm5.69-4.51c3.62.11,7.12.68,9.39-2.79,1.72-2.63,1.69-6.48-.07-8.72-2.43-3.11-5.87-2.73-9.32-2.88Z"/><path class="cls-2" d="M417.13,213.28c2.08,1.66,3.93,3.14,3.74,6-.21,3.09-1.9,5.65-4.89,6.23a46.19,46.19,0,0,1-12.81.49c-.19,0-.37-.21-.72-.43V202.33c2-.54,10.28-.65,12-.21C418.86,203.24,421.92,207.76,417.13,213.28Zm-9.37,8.43c1.68,0,3.21.11,4.71,0a3.08,3.08,0,0,0,2.93-3,3,3,0,0,0-3-2.92,14.39,14.39,0,0,0-4.66.14Zm0-10.39A6.63,6.63,0,0,0,413,211a2.3,2.3,0,0,0,1.19-2.48,2,2,0,0,0-1.39-2c-1.63-.46-3.31-1.19-5,.05Z"/><path class="cls-2" d="M330.44,226.16v-24c1.72-.61,3.34-.24,5.27-.31v9.05h10.57v-8.62c1.75-.89,3.4-.17,5-.54.64,2.53.76,20.53.17,24.34a18.18,18.18,0,0,1-5-.14V216.5H336.07c-.62,3,.07,6.17-.37,9.41C334,226.45,332.29,226.12,330.44,226.16Z"/><path class="cls-2" d="M76.44,217.25a4.37,4.37,0,0,0-2.91.25V226H68.34V201.85c3.9.21,7.73-.58,11.5.46,6.06,1.68,7.82,8.06,3.54,12.67a9.43,9.43,0,0,1-1.5,1.12c1.24,3.73,3.74,6.37,4.87,9.9a16.55,16.55,0,0,1-5.44,0C79.24,223.45,78.37,220.18,76.44,217.25Zm-2.76-4.5a7.11,7.11,0,0,0,4.66-.35,3.08,3.08,0,0,0,1.73-3.54,2.76,2.76,0,0,0-2.72-2.37c-1.17-.05-2.35,0-3.67,0Z"/><path class="cls-2" d="M323,41.85a4.67,4.67,0,0,1-3.11-3.41c-.89-2.92-2.47-5.59-2.76-8.75-.16-1.77-1-3.46-1.3-5.31-.65-3.83-.21-7.64-.57-11.45-.19-1.95.12-3.88-.46-5.87a7,7,0,0,1,1.27-6,2.1,2.1,0,0,1,3.41-.41c2.69,2.26,4.8,4.82,4.44,8.7a30.42,30.42,0,0,0,0,5c.15,2.18-.34,4.39.56,6.55.35.84.51,2.29,0,2.87-2.73,3.26-.84,7.06-1.41,10.56C322.67,36.68,323,39.14,323,41.85Z"/><path class="cls-2" d="M36.51,226V202h16.1c.67,1.34.28,2.82.23,4.61H42.26c-.74,1.55-.41,2.84-.44,4.49h8.27a14.21,14.21,0,0,1,.18,4.77H42.35c-1,1.72-.42,3.26-.57,5,3.89.64,7.73,0,11.68.41a15.44,15.44,0,0,1,.07,4.76Z"/><path class="cls-2" d="M561.67,201.93h6.15c2.86,7.85,5.73,15.74,8.67,23.79a12.12,12.12,0,0,1-5.5.35c-1.46-1.56-1.38-3.73-2.48-5.51h-7.9c-1.28,1.49-1.26,3.62-2.24,5.34-1.78.58-3.5.15-5.8.38C555.73,217.81,558.71,209.86,561.67,201.93Zm5.83,14.3c-1-3-1.9-5.68-2.93-8.78a73.38,73.38,0,0,0-2.87,8.78Z"/><path class="cls-2" d="M374.1,201.93h6.1c2.92,7.94,5.84,15.91,8.87,24.13H383.3c-1.22-1.49-1.22-3.62-2.28-5.42a38.2,38.2,0,0,0-8.07,0c-1.12,1.68-1.07,3.71-2.22,5.2-1.64.72-3.26.27-4.74.38a2.93,2.93,0,0,1,0-2.78C368.66,216.33,371.34,209.25,374.1,201.93Zm3.19,6.08h-.66c-.65,2.69-2.11,5.16-2.27,8.21,1.86.1,3.54.38,5.4-.26C378.9,213.18,378.09,210.6,377.29,208Z"/><path class="cls-2" d="M310.28,225.85a14,14,0,0,1-5.65.16c-1.17-1.69-1.07-3.86-2.31-5.47h-8.05l-1.93,5.26a11.06,11.06,0,0,1-5.78.12l9-23.94h6.14C304.5,209.74,307.57,217.64,310.28,225.85Zm-14.87-9.73a20,20,0,0,0,5.83.07c-1.06-2.84-1.35-5.74-3-8.53C297.23,210.64,296.35,213.31,295.41,216.12Z"/><path class="cls-2" d="M134.86,202c2.91,8,5.77,15.79,8.7,23.8a10.83,10.83,0,0,1-5.73.21c-1.11-1.64-1.27-3.57-2.2-5.37h-8c-1.33,1.35-1.14,3.57-2.31,5.33-1.63.52-3.35.27-5.55.16,2.87-8.28,5.89-16.21,9-24.13Zm-6.42,14.47c2.31-.22,4.11.17,6.05-.35l-2.84-8.58C130.15,210.39,129.8,213.23,128.44,216.42Z"/><path class="cls-2" d="M224.77,202h5.8c1.2,2.16,7.83,20.08,8.87,24-1.81.56-3.64.09-5.34.31-1.44-1.73-1.36-3.89-2.5-5.63a55,55,0,0,0-7.92-.09c-1.25,1.63-1.16,3.8-2.43,5.54a18.81,18.81,0,0,1-5.08,0c.71-4.38,2.73-8.16,4.11-12.12S223.27,205.93,224.77,202Zm2.79,6.07c-.92,2.73-2.48,5.18-2.56,8.25a22.54,22.54,0,0,0,5.2-.13C230,213.17,228.63,210.67,227.56,208Z"/><path class="cls-2" d="M462,209.34a11.43,11.43,0,0,0,4.38,1.91,9.31,9.31,0,0,1,5,2.4c1.79,1.94,2.93,4.07,2.12,6.88a7.5,7.5,0,0,1-5.9,5.66c-4.68.88-9.26.46-12.89-3.54a15,15,0,0,1,3.2-3.57c6.28,3.63,7.5,3.64,9.95,0-.66-2.25-2.77-2.66-4.59-3.21a17.67,17.67,0,0,1-4-1.51c-5.16-3-3.61-9.5-.29-11.66a11.28,11.28,0,0,1,13.62,1.66c.15.91-.58,1.35-1.06,1.93s-.85,1-1.24,1.47a40.66,40.66,0,0,0-4.75-1.84C463.3,205.38,462.1,206.56,462,209.34Z"/><path class="cls-2" d="M19.23,218.27l3.22,3c-2.51,4.28-7.9,6.4-13.31,4.93S.37,221.06,0,214.67A12.26,12.26,0,0,1,8.23,202a12,12,0,0,1,14.17,4.08A19.5,19.5,0,0,1,19,209.4c-2.19-1.9-4.5-3.6-7.64-2.92a6.87,6.87,0,0,0-4,2.69A8.37,8.37,0,0,0,8,219.54C10.66,222.2,15,221.79,19.23,218.27Z"/><path class="cls-2" d="M363.76,50.45a3.76,3.76,0,0,0-4.4,1c-1.5,1.48-3.61,2.43-5.41,3.67a16.67,16.67,0,0,0-2.75,2.12,3.92,3.92,0,0,1-.56-3.55c1.41-4.48,3.25-8.87,6.36-12.35a45.84,45.84,0,0,1,5.5-5.06,14.2,14.2,0,0,0,3.5-3.42,4.08,4.08,0,0,1,3.74-1.74,2.94,2.94,0,0,1,3.22,3c.12,1.87.13,3.75.07,5.62s-1.26,3-2.53,4.06A41.1,41.1,0,0,0,363.76,50.45Z"/><path class="cls-2" d="M335.7,42.35c1.52-4,1.11-8.07,2.19-11.92a3.49,3.49,0,0,0-.09-2.56c-.81-1.12-.26-2,0-3,.65-2.75,1.38-5.49,2-8.24A22.91,22.91,0,0,1,341.44,12c1.35-.94,2.65-2,4.05-2.81,2.18-1.31,3.91-.44,4.18,2.08a8.78,8.78,0,0,1-.39,3.57,87.12,87.12,0,0,0-2.87,10.67c-.7,4.1-2.79,7.52-4.7,11a15.48,15.48,0,0,1-2.95,4.28A4.92,4.92,0,0,1,335.7,42.35Z"/><path class="cls-2" d="M311.88,46.88c-2.23-3.84-5.56-6.71-7.63-10.49a2.91,2.91,0,0,0-1.46-1.29c-2.1-.7-2.81-2.4-3.64-4.21a32.37,32.37,0,0,0-3-4.69,42.32,42.32,0,0,1-3.95-7.7,15.72,15.72,0,0,0,1-3,9.11,9.11,0,0,1,1.1-2.68c2.62-.52,4,1.23,4.7,3,2.11,5.36,5.79,9.77,8.43,14.79a71.62,71.62,0,0,1,4.83,12.21A5.53,5.53,0,0,1,311.88,46.88Z"/><path class="cls-2" d="M522.88,202h6c2.08,2.45,3.12,5.55,5.29,8.23,2.42-2.38,3.26-5.68,5.34-8.25h5.4c-.64,2.64-2.38,4.51-3.54,6.68-1.34,2.51-3.46,4.74-4.22,7.38s-.19,5.47-.22,8.23c0,.53-.07,1.07-.11,1.75a13,13,0,0,1-5.47-.11,33.86,33.86,0,0,1-.17-7.18,9.31,9.31,0,0,0-1.59-5.56C527.36,209.63,525.3,206,522.88,202Z"/><path class="cls-2" d="M175.2,225.73h-5.37c-.11-6.19,0-12.44-.06-18.82-2.53-.69-5.08,0-7.65-.47A13,13,0,0,1,162,202h20.77c.66,1.33.28,2.8.21,4.6H175.5c-.6,3.34-.22,6.42-.29,9.47S175.2,222.27,175.2,225.73Z"/><path class="cls-2" d="M289.91,49.88c-3.2-2.92-8.17-4.66-10.57-9.37.24-1.95-.53-4.32,2.06-5.2a2.79,2.79,0,0,1,2.16,1.08c3,3.73,7.09,6.08,10.78,9a31.22,31.22,0,0,1,6.6,7.3,3.35,3.35,0,0,1,.61,3.49C298.14,53.72,295,50.79,289.91,49.88Z"/><path class="cls-2" d="M106.35,225.86a12.51,12.51,0,0,1-5,.21c-.66-2.6-.83-18.55-.3-24a21.74,21.74,0,0,1,5.31-.07Z"/><path class="cls-2" d="M440.56,225.71h-5V202.13c1.6-.59,3.21-.09,5-.34Z"/><path class="cls-2" d="M197.08,225.77V202.2c1.65-.64,3.33-.31,5.16-.25v23.73A22,22,0,0,1,197.08,225.77Z"/></g></g></svg>